# xmcd
#
# Track frame offsets: 
#        183
#        10543
#        23630
#        33600
#        47983
#        60208
#        71218
#        84120
#        97300
#        110838
#        122713
#        131720
#        143623
#        159553
#
# Disc length: 2314 seconds
#
# Revision: 0
# Processed by: cddbd v1.4PL0 Copyright (c) Steve Scherf et al.
# Submitted via: ExactAudioCopy v0.90a11
#
DISCID=bb09080e
DTITLE=Euston Jones - Hand of a Lover
DYEAR=1900
DGENRE=
TTITLE0=Hand of a Lover
TTITLE1=Cork Poppin
TTITLE2=Holding You Now
TTITLE3=Broken Heart
TTITLE4=Wedding Ring
TTITLE5=I'm Missing You Now
TTITLE6=Now that Frank has gone
TTITLE7=Breathless
TTITLE8=Call me a Stranger
TTITLE9=Kiss Goodnight Tonight
TTITLE10=You Don't Know Me
TTITLE11=In Dreams
TTITLE12=Taking my Chances
TTITLE13=The Trouble With Me
EXTD=
EXTT0=
EXTT1=
EXTT2=
EXTT3=
EXTT4=
EXTT5=
EXTT6=
EXTT7=
EXTT8=
EXTT9=
EXTT10=
EXTT11=
EXTT12=
EXTT13=
PLAYORDER=
